<svg xmlns="http://www.w3.org/2000/svg" width="22" height="22" fill="none"><path fill="#fff" d="M15.396 6.757a1 1 0 0 1 0 1.415l-2.981 2.98 2.675 2.676a1 1 0 1 1-1.414 1.414L11 12.567l-2.675 2.675a1 1 0 0 1-1.414-1.414l2.675-2.675L6.605 8.17a1 1 0 1 1 1.414-1.414L11 9.74l2.982-2.982a1 1 0 0 1 1.414 0z"/><path fill="#fff" fill-rule="evenodd" d="M3 0a3 3 0 0 0-3 3v16a3 3 0 0 0 3 3h16a3 3 0 0 0 3-3V3a3 3 0 0 0-3-3zm16 2H3a1 1 0 0 0-1 1v16a1 1 0 0 0 1 1h16a1 1 0 0 0 1-1V3a1 1 0 0 0-1-1z" clip-rule="evenodd"/></svg>