<svg xmlns="http://www.w3.org/2000/svg" width="137.5" height="137.5" viewBox="0 0 22 22"><path fill="#fff" d="M21.5 22h-3a.5.5 0 0 1 0-1H21v-2.5a.5.5 0 0 1 1 0v3a.5.5 0 0 1-.5.5zm0-6a.5.5 0 0 1-.5-.5v-3a.5.5 0 0 1 1 0v3a.5.5 0 0 1-.5.5zm0-6a.5.5 0 0 1-.5-.5v-3a.5.5 0 0 1 1 0v3a.5.5 0 0 1-.5.5zm0-6a.5.5 0 0 1-.5-.5V1h-2.5a.5.5 0 0 1 0-1h3a.5.5 0 0 1 .5.5v3a.5.5 0 0 1-.5.5zm-6 18h-3a.5.5 0 0 1 0-1h3a.5.5 0 0 1 0 1zm0-21h-3a.5.5 0 0 1 0-1h3a.5.5 0 0 1 0 1zm-.562 9a1 1 0 1 1 0 2h-3v3a1 1 0 0 1-2 0v-3h-3a1 1 0 0 1 0-2h3V7a1 1 0 1 1 2 0v3zM9.5 1h-3a.5.5 0 0 1 0-1h3a.5.5 0 0 1 0 1zm-6 21h-3a.5.5 0 0 1-.5-.5v-3a.5.5 0 0 1 1 0V21h2.5a.5.5 0 0 1 0 1zm0-21H1v2.5a.5.5 0 0 1-1 0v-3A.5.5 0 0 1 .5 0h3a.5.5 0 0 1 0 1zm-3 5a.5.5 0 0 1 .5.5v3a.5.5 0 0 1-1 0v-3A.5.5 0 0 1 .5 6zm0 6a.5.5 0 0 1 .5.5v3a.5.5 0 0 1-1 0v-3a.5.5 0 0 1 .5-.5zm6 9h3a.5.5 0 0 1 0 1h-3a.5.5 0 0 1 0-1z"/></svg>